<mxfile host="app.diagrams.net" modified="2023-11-29T10:03:04.968Z" agent="Mozilla/5.0 (Macintosh; Intel Mac OS X 10_15_7) AppleWebKit/537.36 (KHTML, like Gecko) Chrome/119.0.0.0 Safari/537.36" etag="RoXWPK3v9EOyyf3-nMMg" version="21.7.2" type="github">
  <diagram name="Page-1" id="uoptLGLd5gf5U70hZbru">
    <mxGraphModel dx="2156" dy="756" grid="1" gridSize="10" guides="1" tooltips="1" connect="1" arrows="1" fold="1" page="1" pageScale="1" pageWidth="850" pageHeight="1100" math="0" shadow="0">
      <root>
        <mxCell id="0" />
        <mxCell id="1" parent="0" />
        <mxCell id="pe6p76G8-6E1kHMifvDs-1" value="" style="endArrow=none;html=1;rounded=0;" edge="1" parent="1">
          <mxGeometry width="50" height="50" relative="1" as="geometry">
            <mxPoint x="440" y="720" as="sourcePoint" />
            <mxPoint x="440" y="160" as="targetPoint" />
          </mxGeometry>
        </mxCell>
        <mxCell id="pe6p76G8-6E1kHMifvDs-2" value="" style="endArrow=none;html=1;rounded=0;" edge="1" parent="1" source="pe6p76G8-6E1kHMifvDs-17">
          <mxGeometry width="50" height="50" relative="1" as="geometry">
            <mxPoint x="80" y="440" as="sourcePoint" />
            <mxPoint x="840" y="445" as="targetPoint" />
          </mxGeometry>
        </mxCell>
        <mxCell id="pe6p76G8-6E1kHMifvDs-3" value="Commitment/Availability" style="text;html=1;strokeColor=none;fillColor=none;align=center;verticalAlign=middle;whiteSpace=wrap;rounded=0;" vertex="1" parent="1">
          <mxGeometry x="-20" y="430" width="60" height="30" as="geometry" />
        </mxCell>
        <mxCell id="pe6p76G8-6E1kHMifvDs-4" value="Skill" style="text;html=1;strokeColor=none;fillColor=none;align=center;verticalAlign=middle;whiteSpace=wrap;rounded=0;" vertex="1" parent="1">
          <mxGeometry x="410" y="130" width="60" height="30" as="geometry" />
        </mxCell>
        <mxCell id="pe6p76G8-6E1kHMifvDs-5" value="Vinod" style="text;html=1;strokeColor=none;fillColor=none;align=center;verticalAlign=middle;whiteSpace=wrap;rounded=0;" vertex="1" parent="1">
          <mxGeometry x="755" y="260" width="60" height="30" as="geometry" />
        </mxCell>
        <mxCell id="pe6p76G8-6E1kHMifvDs-6" value="Mitul" style="text;html=1;align=center;verticalAlign=middle;resizable=0;points=[];autosize=1;strokeColor=none;fillColor=none;" vertex="1" parent="1">
          <mxGeometry x="535" y="448" width="50" height="30" as="geometry" />
        </mxCell>
        <mxCell id="pe6p76G8-6E1kHMifvDs-7" value="Jyoti" style="text;html=1;strokeColor=none;fillColor=none;align=center;verticalAlign=middle;whiteSpace=wrap;rounded=0;" vertex="1" parent="1">
          <mxGeometry x="530" y="470" width="60" height="30" as="geometry" />
        </mxCell>
        <mxCell id="pe6p76G8-6E1kHMifvDs-8" value="Shubham" style="text;html=1;align=center;verticalAlign=middle;resizable=0;points=[];autosize=1;strokeColor=none;fillColor=none;" vertex="1" parent="1">
          <mxGeometry x="750" y="220" width="70" height="30" as="geometry" />
        </mxCell>
        <mxCell id="pe6p76G8-6E1kHMifvDs-9" value="Sharath BJ" style="text;html=1;align=center;verticalAlign=middle;resizable=0;points=[];autosize=1;strokeColor=none;fillColor=none;" vertex="1" parent="1">
          <mxGeometry x="745" y="190" width="80" height="30" as="geometry" />
        </mxCell>
        <mxCell id="pe6p76G8-6E1kHMifvDs-10" value="Sharath K" style="text;html=1;align=center;verticalAlign=middle;resizable=0;points=[];autosize=1;strokeColor=none;fillColor=none;" vertex="1" parent="1">
          <mxGeometry x="735" y="400" width="80" height="30" as="geometry" />
        </mxCell>
        <mxCell id="pe6p76G8-6E1kHMifvDs-11" value="Saurav Singh" style="text;html=1;align=center;verticalAlign=middle;resizable=0;points=[];autosize=1;strokeColor=none;fillColor=none;" vertex="1" parent="1">
          <mxGeometry x="510" y="500" width="100" height="30" as="geometry" />
        </mxCell>
        <mxCell id="pe6p76G8-6E1kHMifvDs-12" value="Saurav Srivastav" style="text;html=1;align=center;verticalAlign=middle;resizable=0;points=[];autosize=1;strokeColor=none;fillColor=none;" vertex="1" parent="1">
          <mxGeometry x="505" y="528" width="110" height="30" as="geometry" />
        </mxCell>
        <mxCell id="pe6p76G8-6E1kHMifvDs-13" value="Paras Jain" style="text;html=1;align=center;verticalAlign=middle;resizable=0;points=[];autosize=1;strokeColor=none;fillColor=none;" vertex="1" parent="1">
          <mxGeometry x="340" y="400" width="80" height="30" as="geometry" />
        </mxCell>
        <mxCell id="pe6p76G8-6E1kHMifvDs-14" value="Milendu" style="text;html=1;align=center;verticalAlign=middle;resizable=0;points=[];autosize=1;strokeColor=none;fillColor=none;" vertex="1" parent="1">
          <mxGeometry x="745" y="290" width="70" height="30" as="geometry" />
        </mxCell>
        <mxCell id="pe6p76G8-6E1kHMifvDs-15" value="Harpal" style="text;html=1;align=center;verticalAlign=middle;resizable=0;points=[];autosize=1;strokeColor=none;fillColor=none;" vertex="1" parent="1">
          <mxGeometry x="695" y="470" width="60" height="30" as="geometry" />
        </mxCell>
        <mxCell id="pe6p76G8-6E1kHMifvDs-16" value="Garv" style="text;html=1;align=center;verticalAlign=middle;resizable=0;points=[];autosize=1;strokeColor=none;fillColor=none;" vertex="1" parent="1">
          <mxGeometry x="440" y="558" width="50" height="30" as="geometry" />
        </mxCell>
        <mxCell id="pe6p76G8-6E1kHMifvDs-18" value="Akhilesh" style="text;html=1;align=center;verticalAlign=middle;resizable=0;points=[];autosize=1;strokeColor=none;fillColor=none;" vertex="1" parent="1">
          <mxGeometry x="525" y="558" width="70" height="30" as="geometry" />
        </mxCell>
        <mxCell id="pe6p76G8-6E1kHMifvDs-19" value="Shobhit" style="text;html=1;align=center;verticalAlign=middle;resizable=0;points=[];autosize=1;strokeColor=none;fillColor=none;" vertex="1" parent="1">
          <mxGeometry x="610" y="448" width="60" height="30" as="geometry" />
        </mxCell>
        <mxCell id="pe6p76G8-6E1kHMifvDs-20" value="Dinesh" style="text;html=1;align=center;verticalAlign=middle;resizable=0;points=[];autosize=1;strokeColor=none;fillColor=none;" vertex="1" parent="1">
          <mxGeometry x="670" y="240" width="60" height="30" as="geometry" />
        </mxCell>
        <mxCell id="pe6p76G8-6E1kHMifvDs-21" value="Sunil" style="text;html=1;align=center;verticalAlign=middle;resizable=0;points=[];autosize=1;strokeColor=none;fillColor=none;" vertex="1" parent="1">
          <mxGeometry x="615" y="478" width="50" height="30" as="geometry" />
        </mxCell>
        <mxCell id="pe6p76G8-6E1kHMifvDs-22" value="Tarun" style="text;html=1;align=center;verticalAlign=middle;resizable=0;points=[];autosize=1;strokeColor=none;fillColor=none;" vertex="1" parent="1">
          <mxGeometry x="530" y="580" width="50" height="30" as="geometry" />
        </mxCell>
        <mxCell id="pe6p76G8-6E1kHMifvDs-23" value="Gagan" style="text;html=1;align=center;verticalAlign=middle;resizable=0;points=[];autosize=1;strokeColor=none;fillColor=none;" vertex="1" parent="1">
          <mxGeometry x="445" y="260" width="60" height="30" as="geometry" />
        </mxCell>
        <mxCell id="pe6p76G8-6E1kHMifvDs-25" value="Jinisha" style="text;html=1;align=center;verticalAlign=middle;resizable=0;points=[];autosize=1;strokeColor=none;fillColor=none;" vertex="1" parent="1">
          <mxGeometry x="740" y="368" width="60" height="30" as="geometry" />
        </mxCell>
        <mxCell id="pe6p76G8-6E1kHMifvDs-26" value="Puneet" style="text;html=1;align=center;verticalAlign=middle;resizable=0;points=[];autosize=1;strokeColor=none;fillColor=none;" vertex="1" parent="1">
          <mxGeometry x="320" y="508" width="60" height="30" as="geometry" />
        </mxCell>
        <mxCell id="pe6p76G8-6E1kHMifvDs-27" value="" style="endArrow=none;html=1;rounded=0;" edge="1" parent="1" target="pe6p76G8-6E1kHMifvDs-17">
          <mxGeometry width="50" height="50" relative="1" as="geometry">
            <mxPoint x="80" y="440" as="sourcePoint" />
            <mxPoint x="840" y="440" as="targetPoint" />
          </mxGeometry>
        </mxCell>
        <mxCell id="pe6p76G8-6E1kHMifvDs-17" value="Atul" style="text;html=1;strokeColor=none;fillColor=none;align=center;verticalAlign=middle;whiteSpace=wrap;rounded=0;" vertex="1" parent="1">
          <mxGeometry x="695" y="430" width="60" height="30" as="geometry" />
        </mxCell>
      </root>
    </mxGraphModel>
  </diagram>
</mxfile>
